<?xml version="1.0" encoding="utf-8"?>
<!-- Generator: Adobe Illustrator 23.0.0, SVG Export Plug-In . SVG Version: 6.00 Build 0)  -->
<svg version="1.1" id="Calque_1" xmlns="http://www.w3.org/2000/svg" xmlns:xlink="http://www.w3.org/1999/xlink" x="0px" y="0px"
	 viewBox="0 0 253.33 251.9" style="enable-background:new 0 0 253.33 251.9;" xml:space="preserve">
<style type="text/css">
	.st0{fill:none;stroke:#6784A8;stroke-width:11.3386;stroke-miterlimit:10;}
	.st1{fill:#E7903A;}
	.st2{fill:#FFFFFF;}
</style>
<path class="st0" d="M14.07,141.49l34.86,32.46l2.17,2.02c-3.96,0.62-7.61,2.3-10.55,5.09c-9.13,8.69-7.9,24.83,2.76,36.05
	c10.66,11.22,26.7,13.27,35.83,4.58c3.83-3.64,5.83-8.6,6.08-13.95l33.85,31.52"/>
<path class="st0" d="M115.31,243.11l32.61-34.86c0.96,4,2.99,7.59,6.11,10.33c9.49,8.31,25.43,5.62,35.61-6.02
	c10.18-11.64,10.75-27.81,1.26-36.13c-2.67-2.34-5.85-3.8-9.26-4.45l28.01-30.13l-34.13-31.79c0.1,5.83-1.83,11.31-5.9,15.3
	c-9.02,8.81-25.09,6.97-35.89-4.1c-10.8-11.08-12.26-27.19-3.24-36.01c3.38-3.31,7.77-5.12,12.49-5.49l-30.71-28.61l-3.59-3.34
	L83.54,74.83c-1.04-3.05-2.75-5.8-5.17-8.03c-9.27-8.55-25.28-6.27-35.75,5.11c-10.48,11.38-11.45,27.53-2.18,36.08
	c2.35,2.17,5.14,3.64,8.15,4.44l-10.71,11.52l-19.79,21.28"/>
<g>
	<path class="st1" d="M244.3,46.55c0,20.87-16.87,37.72-37.71,37.72c-20.82,0-37.73-16.86-37.73-37.72
		c0-20.82,16.91-37.72,37.73-37.72C227.43,8.83,244.3,25.73,244.3,46.55z"/>
	<g>
		<rect x="203.27" y="30.01" class="st2" width="6.62" height="33.09"/>
		<rect x="190.04" y="43.24" class="st2" width="33.09" height="6.62"/>
	</g>
</g>
</svg>
