<?xml version="1.0" encoding="utf-8"?>
<!-- Generator: Adobe Illustrator 23.0.0, SVG Export Plug-In . SVG Version: 6.00 Build 0)  -->
<svg version="1.1" id="Mode_Isolation" xmlns="http://www.w3.org/2000/svg" xmlns:xlink="http://www.w3.org/1999/xlink" x="0px"
	 y="0px" viewBox="0 0 87.5 84" style="enable-background:new 0 0 87.5 84;" xml:space="preserve">
<style type="text/css">
	.st0{fill:#6681A7;}
	.st1{fill:#FFFFFF;}
	.st2{fill-rule:evenodd;clip-rule:evenodd;fill:#6681A7;}
	.st3{fill-rule:evenodd;clip-rule:evenodd;fill:#EF951C;}
	.st4{fill:none;}
	.st5{fill:#EF951C;stroke:#FFFFFF;stroke-width:5.3445;}
</style>
<g>
	<g>
		<path class="st0" d="M30.1,41.9c0-6.5,2.5-12.5,7-17.1c4.5-4.5,10.5-7,17-7h0c4.9,0,9.6,1.5,13.6,4.2v-5.2c0-2.9-2.4-5.3-5.3-5.3
			H10.1c-2.9,0-5.3,2.4-5.3,5.3v39.8c0,2.9,2.4,5.3,5.3,5.3h30.6c-1.3-0.9-2.4-1.8-3.5-2.9C32.6,54.4,30.1,48.4,30.1,41.9z"/>
		<path class="st0" d="M48.6,67H23.9c-1.8,0-3.3,1.5-3.3,3.3c0,1.8,1.5,3.3,3.3,3.3h24.8c1.8,0,3.3-1.5,3.3-3.3
			C51.9,68.5,50.4,67,48.6,67z"/>
		<path class="st1" d="M64.4,56.6c0,1.1-0.9,2-2,2H10.1c-1.1,0-2-0.9-2-2V16.8c0-1.1,0.9-2,2-2h52.3c1.1,0,2,0.9,2,2V56.6z"/>
		<g>
			<path class="st2" d="M12.6,22.7h1.3c0.1,0,0.2,0,0.2,0.1l0.5,0.8l2-3.2c0-0.1,0.1-0.1,0.2-0.1l0,0h1.3c0.1,0,0.2,0.1,0.2,0.2
				c0,0,0,0.1,0,0.1l-3.2,4.9H14l-1.6-2.5c-0.1-0.1,0-0.2,0.1-0.3C12.5,22.8,12.5,22.7,12.6,22.7L12.6,22.7z"/>
			<path class="st2" d="M23.6,23.8h19.1c0.5,0,0.5,1.8,0,1.8H23.6C23,25.6,23,23.8,23.6,23.8L23.6,23.8z"/>
		</g>
		<g>
			<path class="st2" d="M12.6,31.8h1.3c0.1,0,0.2,0,0.2,0.1l0.5,0.8l2-3.2c0-0.1,0.1-0.1,0.2-0.1l0,0h1.3c0.1,0,0.2,0.1,0.2,0.2
				c0,0,0,0.1,0,0.1l-3.2,4.9H14l-1.6-2.5c-0.1-0.1,0-0.2,0.1-0.3C12.5,31.8,12.5,31.8,12.6,31.8L12.6,31.8z"/>
			<path class="st2" d="M23.4,32.9h19.1c0.5,0,0.5,1.8,0,1.8H23.4C22.8,34.6,22.8,32.9,23.4,32.9L23.4,32.9z"/>
		</g>
		<g>
			<path class="st3" d="M12.6,40.9h1.3c0.1,0,0.2,0,0.2,0.1l0.5,0.8l2-3.2c0-0.1,0.1-0.1,0.2-0.1l0,0h1.3c0.1,0,0.2,0.1,0.2,0.2
				c0,0,0,0.1,0,0.1l-3.2,4.9H14l-1.6-2.5c-0.1-0.1,0-0.2,0.1-0.3C12.5,40.9,12.5,40.9,12.6,40.9L12.6,40.9z"/>
			<path class="st3" d="M23.5,42h19.1c0.5,0,0.5,1.8,0,1.8H23.5C22.9,43.7,22.9,42,23.5,42L23.5,42z"/>
		</g>
		<g>
			<path class="st2" d="M12.6,50h1.3c0.1,0,0.2,0.1,0.2,0.1l0.5,0.8l2-3.2c0-0.1,0.1-0.1,0.2-0.1l0,0h1.3c0.1,0,0.2,0.1,0.2,0.2
				c0,0,0,0.1,0,0.1l-3.2,4.9H14l-1.6-2.5c-0.1-0.1,0-0.2,0.1-0.3C12.5,50,12.5,50,12.6,50L12.6,50z"/>
			<path class="st2" d="M23.5,51h19.1c0.5,0,0.5,1.8,0,1.8H23.5C22.9,52.8,22.9,51,23.5,51L23.5,51z"/>
		</g>
		<path class="st0" d="M54,21.5L54,21.5c-5.4,0-10.6,2.1-14.4,5.9c-3.9,3.9-6,9-6,14.5c0,5.5,2.2,10.6,6,14.5c3.9,3.9,9.1,6,14.6,6
			c4.3,0,8.4-1.3,11.8-3.8L77,69.6c0.1,0.1,0.3,0.2,0.5,0.2c1.6,0,5.2-4,4.1-5L70.9,53.9c2.5-3.4,3.8-7.6,3.8-11.9
			c0-5.5-2.2-10.6-6-14.5C64.7,23.6,59.5,21.5,54,21.5L54,21.5z"/>
		<path class="st4" d="M66.9,59.4L77,69.6c0.1,0.1,0.3,0.2,0.5,0.2c1.6,0,5.2-4,4.1-5L70.9,53.9c2.5-3.4,3.8-7.6,3.8-11.9
			c0-5.5-2.2-10.6-6-14.5c-0.3-0.3-0.6-0.6-0.9-0.8v29.9C67.7,57.6,67.4,58.6,66.9,59.4z"/>
		<path class="st4" d="M54.3,62.4c1.6,0,3.2-0.2,4.7-0.5h-9.3C51.2,62.3,52.8,62.4,54.3,62.4z"/>
		<path class="st0" d="M54,21.5c-5.4,0-10.6,2.1-14.4,5.9c-3.9,3.9-6,9-6,14.5c0,5.5,2.2,10.6,6,14.5c2.8,2.8,6.2,4.7,10,5.5H59
			c2.6-0.6,5-1.7,7.2-3.2l0.7,0.7c0.5-0.8,0.8-1.8,0.8-2.8V26.7C63.9,23.3,59.1,21.5,54,21.5L54,21.5z"/>
		<path class="st1" d="M39.8,56.4c-3.9-3.9-6-9-6-14.5c0-5.5,2.1-10.6,6-14.5c3.8-3.8,8.9-5.9,14.4-5.9h0c5.1,0,9.9,1.9,13.6,5.2V22
			c-4-2.7-8.7-4.2-13.6-4.2h0c-6.4,0-12.4,2.5-17,7c-4.6,4.5-7,10.6-7,17.1c0,6.4,2.6,12.5,7.1,17.1c1.1,1.1,2.3,2.1,3.5,2.9h9
			C46,61.1,42.5,59.2,39.8,56.4z"/>
		<path class="st1" d="M54,25.1c4.5,0,8.8,1.8,12,5c3.2,3.2,5,7.4,5,11.9c0,3.5-1.1,6.9-3.1,9.8l-1.6,2.3L64,55.7
			c-2.8,2-6.2,3.1-9.7,3.1c-4.5,0-8.8-1.8-12-5c-3.2-3.2-5-7.4-5-11.9c0-4.5,1.7-8.7,4.9-11.9C45.4,26.9,49.6,25.1,54,25.1L54,25.1"
			/>
		<path class="st5" d="M63.8,32.9c-1.3-1.1-3.3-1-4.4,0.3l-7.6,8.6L49.9,40c-1.2-1.1-3-1-4.1,0.1l-2.4,2.6c-1.1,1.2-1,3,0.1,4.1
			L50,53c1,0.9,2.5,1,3.6,0.3c0.5-0.2,0.9-0.5,1.2-0.9l11.5-13.1v-4.2c-0.1-0.1-0.1-0.2-0.2-0.3L63.8,32.9z"/>
	</g>
</g>
</svg>
