<?xml version="1.0" encoding="utf-8"?>
<!-- Generator: Adobe Illustrator 23.0.0, SVG Export Plug-In . SVG Version: 6.00 Build 0)  -->
<svg version="1.1" id="Calque_1" xmlns="http://www.w3.org/2000/svg" xmlns:xlink="http://www.w3.org/1999/xlink" x="0px" y="0px"
	 viewBox="0 0 83.02 121.23" style="enable-background:new 0 0 83.02 121.23;" xml:space="preserve">
<style type="text/css">
	.st0{fill:#6682A8;}
	.st1{fill-rule:evenodd;clip-rule:evenodd;fill:#F09721;}
	.st2{fill:#FFFFFF;}
</style>
<g>
	<rect x="24.83" y="93.5" class="st0" width="35.25" height="3.5"/>
	<rect x="24.83" y="108.02" class="st0" width="35.25" height="3.5"/>
	<rect x="24.83" y="100.76" class="st0" width="35.25" height="3.5"/>
	<rect x="34.68" y="115.28" class="st0" width="15.55" height="3.5"/>
	<rect x="37.08" y="76" class="st0" width="3.5" height="19.26"/>
	<rect x="44.34" y="76" class="st0" width="3.5" height="19.26"/>
	<path class="st0" d="M58.38,95.25h-3.5V90c0-8.41,3.58-16.49,9.81-22.18c0.13-0.11,0.24-0.21,0.35-0.3
		c7.57-6.52,11.95-16.06,11.95-26.12c0-19.04-15.49-34.54-34.54-34.54c-19.04,0-34.54,15.49-34.54,34.54
		c0,10.06,4.38,19.6,12.01,26.18c0.05,0.03,0.16,0.13,0.28,0.24c6.25,5.69,9.82,13.78,9.82,22.19v5.26h-3.5V90
		c0-7.43-3.16-14.58-8.67-19.6c-0.04-0.04-0.09-0.08-0.15-0.13C9.24,62.98,4.42,52.47,4.42,41.39c0-20.97,17.06-38.04,38.04-38.04
		s38.04,17.06,38.04,38.04c0,11.08-4.82,21.59-13.23,28.83c-0.12,0.1-0.17,0.14-0.23,0.19c-5.5,5.01-8.66,12.16-8.66,19.58V95.25z"
		/>
	<g>
		<path class="st0" d="M46.39,67.72h-7.87l-2.33-6.08c-1.25-0.39-2.46-0.9-3.63-1.51l-5.95,2.65l-5.56-5.56l2.65-5.95
			c-0.61-1.16-1.12-2.38-1.51-3.63l-6.08-2.32v-7.88l6.08-2.32c0.39-1.25,0.9-2.47,1.51-3.63l-2.66-5.95l5.56-5.56l5.95,2.66
			c1.15-0.61,2.37-1.11,3.63-1.51l2.33-6.08h7.87l2.32,6.08c1.26,0.39,2.48,0.9,3.63,1.51l5.96-2.66l5.55,5.56L61.2,31.5
			c0.61,1.16,1.11,2.38,1.51,3.63l6.08,2.32v7.87l-6.08,2.32c-0.39,1.26-0.9,2.47-1.51,3.63l2.65,5.95l-5.55,5.56l-5.96-2.65
			c-1.16,0.61-2.38,1.12-3.63,1.51L46.39,67.72z M40.93,64.22h3.05l2.09-5.48l0.86-0.23c1.55-0.41,3.04-1.04,4.44-1.85l0.77-0.45
			l5.37,2.39l2.15-2.15l-2.39-5.37l0.45-0.77c0.81-1.38,1.43-2.88,1.84-4.44L59.81,45l5.48-2.09v-3.05l-5.48-2.09l-0.23-0.86
			c-0.42-1.56-1.04-3.05-1.84-4.45l-0.45-0.77l2.39-5.36l-2.15-2.15l-5.38,2.4l-0.78-0.46c-1.37-0.8-2.86-1.42-4.43-1.84l-0.87-0.23
			l-2.09-5.48h-3.05l-2.09,5.48l-0.87,0.23c-1.57,0.42-3.06,1.04-4.43,1.84l-0.78,0.45l-5.37-2.4l-2.15,2.15l2.39,5.36l-0.45,0.77
			c-0.81,1.4-1.43,2.89-1.85,4.44l-0.23,0.87l-5.48,2.09v3.05L25.11,45l0.23,0.87c0.42,1.56,1.04,3.06,1.84,4.44l0.45,0.77
			l-2.39,5.37l2.15,2.15l5.37-2.39l0.77,0.45c1.39,0.81,2.89,1.43,4.44,1.85l0.86,0.23L40.93,64.22z"/>
		<g>
			<g>
				<path class="st1" d="M42.37,52.82c-3.57,0-7.01-1.7-9.21-4.56c-1.26-1.64-2.08-3.7-2.26-5.66c-0.31-3.45,1.17-6.59,2-7.77
					c1.35-1.94,3.87-4.34,8.15-4.79c0.5-0.05,0.99-0.08,1.47-0.08c6.09,0,9.06,4.12,10.05,5.89c1.91,3.41,1.96,7.3,0.15,10.68
					c-1.92,3.57-5.56,5.97-9.5,6.26C42.93,52.81,42.65,52.82,42.37,52.82z"/>
				<g>
					<path class="st2" d="M42.53,30.63c4.81,0,7.9,2.75,9.47,5.55c4.17,7.45-1.67,15.42-8.83,15.94c-0.27,0.02-0.53,0.03-0.8,0.03
						c-3.68,0-6.81-1.87-8.68-4.3c-0.98-1.27-1.93-3.18-2.12-5.31c-0.28-3.09,1.01-6.09,1.88-7.33c1.52-2.18,4.02-4.12,7.68-4.51
						C41.61,30.65,42.07,30.63,42.53,30.63 M42.53,29.3L42.53,29.3c-0.5,0-1.02,0.03-1.54,0.08c-3.54,0.37-6.6,2.17-8.63,5.07
						c-0.87,1.25-2.44,4.57-2.12,8.21c0.19,2.08,1.06,4.27,2.4,6.01c2.32,3.02,5.96,4.82,9.74,4.82c0.29,0,0.59-0.01,0.89-0.03
						c4.16-0.3,8.01-2.83,10.04-6.6c1.93-3.58,1.87-7.7-0.15-11.31C52.1,33.66,48.97,29.3,42.53,29.3L42.53,29.3z"/>
				</g>
			</g>
		</g>
	</g>
</g>
</svg>
