<?xml version="1.0" encoding="utf-8"?>
<!-- Generator: Adobe Illustrator 23.0.0, SVG Export Plug-In . SVG Version: 6.00 Build 0)  -->
<svg version="1.1" id="Calque_1" xmlns="http://www.w3.org/2000/svg" xmlns:xlink="http://www.w3.org/1999/xlink" x="0px" y="0px"
	 viewBox="0 0 79.52 52.38" style="enable-background:new 0 0 79.52 52.38;" xml:space="preserve">
<style type="text/css">
	.st0{fill-rule:evenodd;clip-rule:evenodd;fill:#FFFFFF;stroke:#6683A7;stroke-width:2.126;}
	.st1{fill-rule:evenodd;clip-rule:evenodd;fill:none;stroke:#6683A7;stroke-width:2.126;}
	.st2{fill:#FFFFFF;stroke:#6683A7;stroke-width:2.126;}
	.st3{fill:#FFFFFF;}
	.st4{fill:none;stroke:#E7913A;stroke-width:2.8346;stroke-miterlimit:10;}
	.st5{fill:#E79138;}
</style>
<g>
	<rect x="5.17" y="14.25" class="st0" width="29.46" height="28.52"/>
	<path class="st1" d="M34.63,8.46c0,2.71-6.6,4.91-14.73,4.91c-8.13,0-14.73-2.2-14.73-4.91c0-2.71,6.6-4.91,14.73-4.91
		C28.03,3.55,34.63,5.75,34.63,8.46z"/>
	<path class="st2" d="M19.9,13.42c-8.13,0-14.73-2.2-14.73-4.91v34.27h29.46V8.51C34.63,11.22,28.03,13.42,19.9,13.42z"/>
	<path class="st2" d="M19.9,24.87c-8.13,0-14.73-2.2-14.73-4.91v22.82h29.46V19.95C34.63,22.67,28.03,24.87,19.9,24.87z"/>
	<path class="st2" d="M19.9,36.31c-8.13,0-14.73-2.2-14.73-4.91v11.37h0.01c0,0.03-0.01,0.05-0.01,0.07c0,2.71,6.6,4.91,14.73,4.91
		c8.14,0,14.73-2.2,14.73-4.91c0-0.02,0-0.05,0-0.07h0V31.4C34.63,34.12,28.03,36.31,19.9,36.31z"/>
</g>
<g>
	<g>
		<polygon class="st3" points="74.33,34.96 62.78,26.7 62.78,32.21 48.52,32.21 48.52,37.71 62.78,37.71 62.78,43.22 		"/>
	</g>
	<g>
		<polygon class="st4" points="74.33,34.96 62.78,26.7 62.78,32.21 48.52,32.21 48.52,37.71 62.78,37.71 62.78,43.22 		"/>
	</g>
</g>
<g>
	<g>
		<polygon class="st5" points="67.1,15.28 52.85,15.28 52.85,9.77 41.3,18.03 52.85,26.3 52.85,20.79 67.1,20.79 		"/>
	</g>
	<g>
		<polygon class="st4" points="67.1,15.28 52.85,15.28 52.85,9.77 41.3,18.03 52.85,26.3 52.85,20.79 67.1,20.79 		"/>
	</g>
</g>
</svg>
