<?xml version="1.0" encoding="utf-8"?>
<!-- Generator: Adobe Illustrator 23.0.0, SVG Export Plug-In . SVG Version: 6.00 Build 0)  -->
<svg version="1.1" id="Calque_1" xmlns="http://www.w3.org/2000/svg" xmlns:xlink="http://www.w3.org/1999/xlink" x="0px" y="0px"
	 viewBox="0 0 160.4 142.9" style="enable-background:new 0 0 160.4 142.9;" xml:space="preserve">
<style type="text/css">
	.st0{fill:none;stroke:#6583A9;stroke-width:5.6693;stroke-miterlimit:10;}
	.st1{fill:#FFFFFF;}
	.st2{fill:#E7913A;stroke:#E7913A;stroke-width:5.6693;stroke-miterlimit:10;}
</style>
<path class="st0" d="M29.5,91.6l108,0.1c7.9,0,14.4-6.4,14.4-14.4s-6.4-14.4-14.4-14.4c-0.2,0-0.5,0-0.7,0c1-2.5,1.5-5.2,1.5-8.1
	c0-12.4-10-22.4-22.4-22.4c-3.4,0-6.6,0.8-9.5,2.1C101.5,18.8,86.8,7.3,69.5,7.3C48.2,7.3,31,24.5,31,45.7c0,0.4,0,0.7,0,1.1h0
	c-12.4,0-22.4,10-22.4,22.4s10,22.4,22.4,22.4"/>
<g>
	<g>
		<polygon class="st1" points="112.6,105.4 112.6,76.2 96.8,76.2 96.8,105.4 81.1,105.4 104.7,129 128.4,105.4 		"/>
	</g>
	<g>
		<polygon class="st2" points="112.6,105.4 112.6,76.2 96.8,76.2 96.8,105.4 81.1,105.4 104.7,129 128.4,105.4 		"/>
	</g>
</g>
</svg>
