<?xml version="1.0" encoding="utf-8"?>
<!-- Generator: Adobe Illustrator 23.0.0, SVG Export Plug-In . SVG Version: 6.00 Build 0)  -->
<svg version="1.1" id="Layer_1" xmlns="http://www.w3.org/2000/svg" xmlns:xlink="http://www.w3.org/1999/xlink" x="0px" y="0px"
	 viewBox="0 0 143.96 146.15" style="enable-background:new 0 0 143.96 146.15;" xml:space="preserve">
<style type="text/css">
	.st0{fill:#6481A7;}
	.st1{fill:#EF951C;}
</style>
<g>
	<g>
		<path class="st0" d="M135.1,129.25h-125V29.58h125V129.25z M15.1,124.25h115V34.58h-115V124.25z"/>
		<path class="st0" d="M135.1,34.58h-125v-20h125V34.58z M15.1,29.58h115v-10h-115V29.58z"/>
		<g>
			<rect x="22.1" y="22.08" class="st0" width="5" height="5"/>
			<rect x="32.1" y="22.08" class="st0" width="5" height="5"/>
			<rect x="42.1" y="22.08" class="st0" width="5" height="5"/>
		</g>
	</g>
	<g>
		<rect x="103.05" y="97.19" class="st1" width="21.55" height="21.56"/>
		<rect x="103.05" y="68.64" class="st1" width="21.55" height="21.55"/>
		<rect x="103.05" y="40.08" class="st1" width="21.55" height="21.56"/>
		<g>
			<rect x="20.6" y="113.75" class="st0" width="68.45" height="5"/>
			<rect x="20.6" y="105.47" class="st0" width="68.45" height="5"/>
			<rect x="20.6" y="97.19" class="st0" width="34.22" height="5"/>
		</g>
		<g>
			<rect x="20.6" y="86.19" class="st0" width="68.45" height="5"/>
			<rect x="20.6" y="77.91" class="st0" width="68.45" height="5"/>
			<rect x="20.6" y="69.64" class="st0" width="34.22" height="5"/>
		</g>
		<g>
			<rect x="20.6" y="57.85" class="st0" width="68.45" height="5"/>
			<rect x="20.6" y="49.57" class="st0" width="68.45" height="5"/>
			<rect x="20.6" y="41.3" class="st0" width="34.22" height="5"/>
		</g>
	</g>
</g>
</svg>
