<?xml version="1.0" encoding="utf-8"?>
<!-- Generator: Adobe Illustrator 23.0.0, SVG Export Plug-In . SVG Version: 6.00 Build 0)  -->
<svg version="1.1" id="Mode_Isolation" xmlns="http://www.w3.org/2000/svg" xmlns:xlink="http://www.w3.org/1999/xlink" x="0px"
	 y="0px" viewBox="0 0 87.5 84.03" style="enable-background:new 0 0 87.5 84.03;" xml:space="preserve">
<style type="text/css">
	.st0{fill:#6581A7;}
	.st1{fill:#EF951C;}
</style>
<g>
	<g>
		<g>
			<rect x="18.2" y="39.99" class="st0" width="38.06" height="3.5"/>
			<rect x="36.05" y="53.99" class="st0" width="17.48" height="3.5"/>
			<rect x="36.05" y="60.98" class="st0" width="17.48" height="3.5"/>
			<rect x="18.2" y="46.98" class="st0" width="35.34" height="3.5"/>
			<rect x="36.05" y="25.98" class="st0" width="17.48" height="3.5"/>
			<rect x="36.05" y="32.99" class="st0" width="17.48" height="3.5"/>
			<rect x="18.2" y="18.98" class="st1" width="35.34" height="3.5"/>
		</g>
		<g>
			<rect x="46.3" y="39.98" class="st0" width="20.92" height="3.5"/>
			<rect x="25.82" y="25.98" class="st0" width="20.48" height="3.5"/>
			<rect x="25.82" y="18.98" class="st1" width="20.48" height="3.5"/>
			<rect x="25.82" y="32.99" class="st0" width="41.4" height="3.5"/>
			<rect x="25.82" y="53.98" class="st0" width="20.48" height="3.5"/>
			<rect x="25.82" y="46.98" class="st0" width="20.48" height="3.5"/>
			<rect x="25.82" y="60.98" class="st0" width="41.4" height="3.5"/>
		</g>
		<g>
			<path class="st0" d="M81.82,43.48c-1.86,0-3.62-0.73-4.95-2.05c-1.33-1.33-2.06-3.09-2.06-4.97V14.5c0-0.94-0.37-1.82-1.03-2.49
				c-0.66-0.66-1.54-1.03-2.49-1.03h-2.62v-3.5h2.62c1.89,0,3.65,0.73,4.97,2.06c1.32,1.32,2.05,3.09,2.05,4.96v21.96
				c0,0.94,0.37,1.82,1.03,2.49c0.67,0.66,1.55,1.03,2.48,1.03V43.48z"/>
			<path class="st0" d="M71.29,75.98h-2.62v-3.5h2.62c0.95,0,1.83-0.36,2.48-1.03c0.67-0.67,1.03-1.55,1.03-2.49V47
				c0-1.88,0.73-3.64,2.06-4.96c1.34-1.33,3.1-2.05,4.96-2.05v3.5c-0.93,0-1.82,0.37-2.49,1.04c-0.66,0.66-1.03,1.54-1.03,2.48
				v21.96c0,1.87-0.73,3.63-2.05,4.96C74.94,75.25,73.17,75.98,71.29,75.98z"/>
		</g>
		<g>
			<path class="st0" d="M5.03,43.48v-3.5c0.93,0,1.82-0.37,2.48-1.03c0.67-0.67,1.04-1.55,1.04-2.49V14.5
				c0-1.87,0.73-3.63,2.05-4.96c1.32-1.33,3.09-2.06,4.97-2.06h2.63v3.5h-2.63c-0.94,0-1.83,0.37-2.49,1.03
				c-0.66,0.67-1.03,1.55-1.03,2.49v21.96c0,1.88-0.73,3.64-2.06,4.97C8.66,42.75,6.9,43.48,5.03,43.48z"/>
			<path class="st0" d="M18.2,75.98h-2.63c-1.88,0-3.64-0.73-4.97-2.06c-1.32-1.33-2.05-3.09-2.05-4.96V47
				c0-0.94-0.37-1.82-1.03-2.49c-0.67-0.67-1.55-1.03-2.48-1.03v-3.5c1.87,0,3.63,0.73,4.96,2.05c1.33,1.32,2.06,3.09,2.06,4.96
				v21.96c0,0.94,0.37,1.82,1.03,2.49c0.66,0.66,1.54,1.03,2.49,1.03h2.63V75.98z"/>
		</g>
	</g>
</g>
</svg>
