<?xml version="1.0" encoding="utf-8"?>
<!-- Generator: Adobe Illustrator 23.0.0, SVG Export Plug-In . SVG Version: 6.00 Build 0)  -->
<svg version="1.1" id="Calque_1" xmlns="http://www.w3.org/2000/svg" xmlns:xlink="http://www.w3.org/1999/xlink" x="0px" y="0px"
	 viewBox="0 0 214.15 126.42" style="enable-background:new 0 0 214.15 126.42;" xml:space="preserve">
<style type="text/css">
	.st0{fill:#6783A7;stroke:#6783A7;stroke-width:2.8346;stroke-miterlimit:10;}
	.st1{fill:#E89136;}
</style>
<g>
	<g>
		<path class="st0" d="M130.63,111.36c-0.9,0-1.78-0.15-2.63-0.45L32.06,76.83l-16.13,8.78c-1.42,0.77-3.21,0.74-4.59-0.08
			c-1.4-0.83-2.28-2.36-2.28-3.99L8.93,41.95c-0.01-1.63,0.86-3.16,2.26-4c1.38-0.83,3.18-0.87,4.6-0.11l16.19,8.67l95.71-34.73
			c2.35-0.85,5.03-0.5,7.08,0.93c2.07,1.44,3.31,3.81,3.31,6.33l0.29,84.54c0.01,2.52-1.21,4.9-3.27,6.35
			C133.77,110.86,132.23,111.35,130.63,111.36z M31.62,71.18l1.09,0.39l97.03,34.47c0.78,0.28,1.68,0.16,2.36-0.33
			c0.69-0.49,1.09-1.28,1.09-2.12l-0.29-84.54c0-0.84-0.42-1.63-1.1-2.11c-0.69-0.48-1.58-0.59-2.36-0.31L31.56,52.15L14.1,42.8
			l0.13,37.85L31.62,71.18z"/>
		<path class="st0" d="M72.06,106.26c-1.25,0-2.49-0.21-3.68-0.63l-24.07-8.55c-2.73-0.97-4.92-2.95-6.17-5.56
			c-1.25-2.62-1.4-5.57-0.43-8.3l3.11-8.77l44.53,15.82l-3.11,8.76c-0.97,2.73-2.95,4.92-5.57,6.17
			C75.22,105.9,73.66,106.26,72.06,106.26z M43.97,81.05l-1.38,3.9c-0.51,1.43-0.43,2.97,0.22,4.35c0.65,1.37,1.8,2.41,3.23,2.92
			l24.07,8.55c1.42,0.51,2.98,0.43,4.35-0.22c1.37-0.65,2.41-1.8,2.92-3.23l1.38-3.89L43.97,81.05z"/>
		
			<rect x="29.22" y="49.33" transform="matrix(1 -3.384993e-03 3.384993e-03 1 -0.2086 0.108)" class="st0" width="5.17" height="24.67"/>
	</g>
</g>
<g>
	<path class="st0" d="M164.27,10.38c-5.27,0-10.29,1.09-14.85,3.04v4.47c4.48-2.2,9.52-3.45,14.85-3.45
		c18.62,0,33.76,15.15,33.76,33.77c0,7.15-2.37,14.09-7.03,20.63l-26.73,37.46l-14.85-20.81v6.99l14.85,20.81l30.03-42.09
		c5.1-7.14,7.79-15.09,7.79-22.99C202.09,27.34,185.12,10.38,164.27,10.38z"/>
	<path class="st1" d="M164.27,29.55c-6.06,0-11.44,2.91-14.85,7.4v22.5c3.41,4.49,8.79,7.39,14.85,7.39
		c10.3,0,18.64-8.33,18.64-18.65C182.91,37.91,174.57,29.55,164.27,29.55z"/>
</g>
</svg>
